<?xml version="1.0" encoding="utf-8"?>
<!-- Generator: Adobe Illustrator 26.0.3, SVG Export Plug-In . SVG Version: 6.00 Build 0)  -->
<svg version="1.1" id="Layer_1" xmlns="http://www.w3.org/2000/svg" xmlns:xlink="http://www.w3.org/1999/xlink" x="0px" y="0px"
	 viewBox="0 0 403.6 140.8" style="enable-background:new 0 0 403.6 140.8;" xml:space="preserve">
<style type="text/css">
	.st0{enable-background:new    ;}
	.st1{fill:#005CAA;}
	.st2{fill:#6ABFEB;}
</style>
<g>
	<g>
		<g class="st0">
			<path class="st1" d="M43.3,110L26.7,82c1.6-0.7,3.1-1.5,4.6-2.6c1.4-1.1,2.7-2.3,3.7-3.8c1.1-1.5,1.9-3.2,2.5-5.2
				c0.6-2,0.9-4.2,0.9-6.7c0-7.1-2-12.3-6.1-15.7c-4.1-3.3-9.8-5-17-5H1.3V110h7.9V83.8H19l15,26.2H43.3z M15.4,77.8H9.2V49.1h5.9
				c5.5,0,9.4,1.3,11.7,3.8c2.3,2.5,3.4,6.1,3.4,10.8c0,4.7-1.3,8.2-3.8,10.5C24,76.6,20.3,77.8,15.4,77.8z"/>
			<path class="st1" d="M96.5,84c0-4.8-0.7-9-2-12.5c-1.3-3.5-3-6.3-5.2-8.5c-2.2-2.2-4.7-3.9-7.5-4.9c-2.8-1-5.7-1.5-8.7-1.5
				c-3,0-5.9,0.5-8.7,1.5c-2.8,1-5.3,2.6-7.5,4.9c-2.2,2.2-3.9,5.1-5.2,8.5c-1.3,3.5-2,7.6-2,12.5c0,4.8,0.7,9,2,12.5
				c1.3,3.5,3.1,6.3,5.2,8.5c2.2,2.2,4.7,3.9,7.5,4.9c2.8,1,5.7,1.5,8.6,1.5c3,0,5.9-0.5,8.6-1.5c2.8-1,5.3-2.6,7.5-4.9
				c2.2-2.2,3.9-5.1,5.2-8.5C95.8,93,96.5,88.8,96.5,84z M84.5,99.9c-2.8,3.6-6.6,5.3-11.4,5.3c-4.8,0-8.6-1.8-11.4-5.3
				C59,96.4,57.6,91,57.6,84c0-7.1,1.4-12.5,4.1-16c2.8-3.6,6.6-5.3,11.4-5.3c4.8,0,8.6,1.8,11.4,5.4c2.8,3.6,4.1,8.9,4.1,16
				C88.7,91,87.3,96.4,84.5,99.9z"/>
			<path class="st1" d="M156.1,84c0-4.8-0.7-9-2-12.5c-1.3-3.5-3-6.3-5.2-8.5c-2.2-2.2-4.7-3.9-7.5-4.9c-2.8-1-5.7-1.5-8.7-1.5
				s-5.9,0.5-8.7,1.5c-2.8,1-5.3,2.6-7.5,4.9c-2.2,2.2-3.9,5.1-5.2,8.5c-1.3,3.5-2,7.6-2,12.5c0,4.8,0.7,9,2,12.5
				c1.3,3.5,3.1,6.3,5.2,8.5c2.2,2.2,4.7,3.9,7.5,4.9c2.8,1,5.7,1.5,8.6,1.5s5.9-0.5,8.6-1.5c2.8-1,5.3-2.6,7.5-4.9
				c2.2-2.2,3.9-5.1,5.2-8.5C155.5,93,156.1,88.8,156.1,84z M144.2,99.9c-2.8,3.6-6.6,5.3-11.4,5.3c-4.8,0-8.6-1.8-11.4-5.3
				c-2.8-3.6-4.1-8.9-4.1-15.9c0-7.1,1.4-12.5,4.1-16c2.8-3.6,6.6-5.3,11.4-5.3c4.8,0,8.6,1.8,11.4,5.4c2.8,3.6,4.1,8.9,4.1,16
				C148.3,91,146.9,96.4,144.2,99.9z"/>
			<polygon class="st1" points="178.6,87.5 198.1,87.5 198.1,81.5 178.6,81.5 178.6,64.2 200.8,64.2 200.8,58 171,58 171,110 
				178.6,110 			"/>
			<path class="st1" d="M244.7,78.4c-1.6-1.6-3.5-3-5.7-4.1c-2.2-1.1-4.5-2.1-6.9-3.1c-2.5-0.9-4.6-1.8-6.2-2.7
				c-1.7-0.9-3-1.8-4-2.8c-1-1-1.8-2.1-2.2-3.3c-0.4-1.2-0.7-2.7-0.7-4.3c0-3.5,1.1-6.1,3.3-7.8c2.2-1.6,5.1-2.5,8.5-2.5
				c3.3,0,5.9,0.7,7.8,2.1c1.9,1.4,3.3,3.4,4.4,6l6.9-2.4c-1.6-3.7-3.9-6.6-6.9-8.7c-3-2.1-7.1-3.2-12.4-3.2c-3.1,0-5.8,0.4-8.2,1.3
				c-2.4,0.9-4.4,2.1-6.1,3.6c-1.7,1.5-2.9,3.3-3.8,5.4c-0.9,2.1-1.3,4.3-1.3,6.6c0,4.3,1.2,7.9,3.6,10.8c2.4,2.9,6.1,5.4,11.1,7.4
				c2.8,1.2,5.3,2.2,7.3,3.2c2,0.9,3.7,2,5,3.2c1.3,1.2,2.2,2.5,2.8,4.1c0.6,1.5,0.9,3.5,0.9,5.9c0,2.2-0.4,4.1-1.1,5.7
				c-0.7,1.5-1.7,2.8-2.9,3.7c-1.2,0.9-2.6,1.6-4,2c-1.5,0.4-3,0.6-4.5,0.6c-2.2,0-4.1-0.3-5.7-0.8c-1.6-0.6-2.9-1.3-4-2.2
				c-1.1-0.9-2-1.9-2.7-3.1c-0.7-1.2-1.3-2.4-1.7-3.6l-6.7,2.5c0.6,1.7,1.5,3.4,2.6,5c1.1,1.6,2.5,3.1,4.1,4.3
				c1.7,1.3,3.7,2.3,6,3.1c2.3,0.8,5,1.2,8.1,1.2c3,0,5.8-0.5,8.4-1.5c2.5-1,4.7-2.3,6.6-4c1.8-1.7,3.3-3.7,4.3-6
				c1-2.3,1.5-4.7,1.5-7.2c0-3.3-0.5-6.1-1.4-8.4C247.7,82,246.4,80,244.7,78.4z"/>
			<polygon class="st1" points="301,110 301,58 294,58 294,101 274.8,58 263.8,58 263.8,110 271,110 271,66.5 290.2,110 			"/>
			<path class="st1" d="M401.6,82.6c1.1-2.1,1.6-4.7,1.6-7.6c0-2.8-0.5-5.4-1.6-7.5c-1.1-2.2-2.5-3.9-4.4-5.3
				c-1.9-1.4-4.1-2.4-6.7-3.2c-2.6-0.7-5.5-1.1-8.6-1.1h-14.3v52h7.5V92.2h6.4c3.1,0,6-0.3,8.6-1c2.6-0.7,4.9-1.7,6.9-3.2
				C399,86.6,400.5,84.8,401.6,82.6z M381.7,86.4h-6.6V63.7h7c4.4,0,7.7,1,10,2.9c2.3,2,3.4,4.8,3.4,8.4
				C395.5,82.6,390.9,86.4,381.7,86.4z"/>
			<polygon class="st1" points="334.2,64.1 350,110 358.3,110 353.2,96.2 353.2,67.5 346.8,67.5 346.8,79.2 338.9,58 329.8,58 
				310.3,110 318,110 			"/>
			<path class="st2" d="M346.8,36.1c-3.7-2.1-8-3.4-12.6-3.4s-8.9,1.2-12.6,3.4l1.2,2.6c3.3-2,7.2-3.1,11.4-3.1s8.1,1.1,11.4,3.1
				L346.8,36.1z"/>
			<path class="st2" d="M334.2,20.4c6.4,0,12.4,1.6,17.6,4.4l1.2-2.6c-5.6-3-12-4.6-18.8-4.6s-13.2,1.7-18.8,4.6l1.2,2.6
				C321.9,21.9,327.9,20.4,334.2,20.4z"/>
			<path class="st2" d="M327,48l1.2,2.7c1.6-1.4,3.8-2.2,6.1-2.2s4.4,0.8,6.1,2.2l1.2-2.7c-2-1.5-4.5-2.4-7.2-2.4S329,46.5,327,48z"
				/>
		</g>
	</g>
</g>
</svg>
